<svg xmlns="http://www.w3.org/2000/svg" viewBox="0 0 1180 1740" font-family="DejaVu Sans, Arial, sans-serif">
<defs>
<radialGradient id="bg" cx="30%" cy="10%" r="120%"><stop offset="0" stop-color="#0a1024"/><stop offset="1" stop-color="#05070f"/></radialGradient>
<linearGradient id="e_flow" x1="0" y1="0" x2="0" y2="1"><stop offset="0" stop-color="#37d0d6" stop-opacity="0.35"/><stop offset="1" stop-color="#37d0d6" stop-opacity="1"/></linearGradient>
<linearGradient id="e_branch" x1="0" y1="0" x2="0" y2="1"><stop offset="0" stop-color="#f4c95d" stop-opacity="0.35"/><stop offset="1" stop-color="#f4c95d" stop-opacity="1"/></linearGradient>
<linearGradient id="e_loop" x1="0" y1="0" x2="0" y2="1"><stop offset="0" stop-color="#f59e0b" stop-opacity="0.35"/><stop offset="1" stop-color="#f59e0b" stop-opacity="1"/></linearGradient>
<linearGradient id="e_compensate" x1="0" y1="0" x2="0" y2="1"><stop offset="0" stop-color="#ff6b6b" stop-opacity="0.35"/><stop offset="1" stop-color="#ff6b6b" stop-opacity="1"/></linearGradient>
</defs>
<rect width="1180" height="1740" fill="url(#bg)"/>
<circle cx="494" cy="1474" r="0.9" fill="#9fc0ff" opacity="0.25"/><circle cx="1041" cy="1186" r="0.6" fill="#9fc0ff" opacity="0.4"/><circle cx="153" cy="41" r="0.9" fill="#9fc0ff" opacity="0.6"/><circle cx="136" cy="1167" r="1.3" fill="#9fc0ff" opacity="0.6"/><circle cx="435" cy="487" r="0.9" fill="#9fc0ff" opacity="0.25"/><circle cx="85" cy="322" r="0.9" fill="#9fc0ff" opacity="0.4"/><circle cx="782" cy="199" r="0.6" fill="#9fc0ff" opacity="0.25"/><circle cx="835" cy="865" r="0.9" fill="#9fc0ff" opacity="0.25"/><circle cx="939" cy="1483" r="1.3" fill="#9fc0ff" opacity="0.4"/><circle cx="1170" cy="800" r="0.9" fill="#9fc0ff" opacity="0.4"/><circle cx="1032" cy="177" r="1.3" fill="#9fc0ff" opacity="0.25"/><circle cx="662" cy="311" r="0.9" fill="#9fc0ff" opacity="0.6"/><circle cx="725" cy="903" r="1.3" fill="#9fc0ff" opacity="0.4"/><circle cx="435" cy="821" r="0.9" fill="#9fc0ff" opacity="0.6"/><circle cx="354" cy="1479" r="0.9" fill="#9fc0ff" opacity="0.25"/><circle cx="604" cy="937" r="0.9" fill="#9fc0ff" opacity="0.25"/><circle cx="418" cy="1227" r="0.9" fill="#9fc0ff" opacity="0.6"/><circle cx="381" cy="1501" r="0.6" fill="#9fc0ff" opacity="0.6"/><circle cx="442" cy="661" r="0.9" fill="#9fc0ff" opacity="0.4"/><circle cx="1028" cy="1235" r="0.9" fill="#9fc0ff" opacity="0.4"/><circle cx="569" cy="1088" r="0.9" fill="#9fc0ff" opacity="0.4"/><circle cx="560" cy="1556" r="1.3" fill="#9fc0ff" opacity="0.25"/><circle cx="667" cy="583" r="0.9" fill="#9fc0ff" opacity="0.25"/><circle cx="513" cy="16" r="1.3" fill="#9fc0ff" opacity="0.6"/><circle cx="213" cy="256" r="1.3" fill="#9fc0ff" opacity="0.6"/><circle cx="383" cy="1230" r="1.3" fill="#9fc0ff" opacity="0.25"/><circle cx="419" cy="216" r="0.9" fill="#9fc0ff" opacity="0.4"/><circle cx="31" cy="1423" r="1.3" fill="#9fc0ff" opacity="0.4"/><circle cx="56" cy="1236" r="0.9" fill="#9fc0ff" opacity="0.4"/><circle cx="1148" cy="637" r="0.9" fill="#9fc0ff" opacity="0.4"/><circle cx="160" cy="1636" r="1.3" fill="#9fc0ff" opacity="0.25"/><circle cx="937" cy="388" r="0.6" fill="#9fc0ff" opacity="0.4"/><circle cx="300" cy="361" r="0.6" fill="#9fc0ff" opacity="0.6"/><circle cx="878" cy="1736" r="0.9" fill="#9fc0ff" opacity="0.25"/><circle cx="10" cy="1511" r="0.9" fill="#9fc0ff" opacity="0.6"/><circle cx="921" cy="1552" r="0.9" fill="#9fc0ff" opacity="0.25"/><circle cx="40" cy="273" r="0.9" fill="#9fc0ff" opacity="0.4"/><circle cx="442" cy="661" r="0.6" fill="#9fc0ff" opacity="0.6"/><circle cx="113" cy="1275" r="0.9" fill="#9fc0ff" opacity="0.25"/><circle cx="619" cy="1646" r="0.9" fill="#9fc0ff" opacity="0.6"/><circle cx="674" cy="1689" r="1.3" fill="#9fc0ff" opacity="0.4"/><circle cx="967" cy="476" r="1.3" fill="#9fc0ff" opacity="0.6"/><circle cx="72" cy="1545" r="1.3" fill="#9fc0ff" opacity="0.4"/><circle cx="380" cy="1718" r="0.6" fill="#9fc0ff" opacity="0.25"/><circle cx="344" cy="657" r="0.6" fill="#9fc0ff" opacity="0.25"/><circle cx="884" cy="62" r="0.9" fill="#9fc0ff" opacity="0.25"/><circle cx="938" cy="225" r="0.6" fill="#9fc0ff" opacity="0.4"/><circle cx="682" cy="150" r="1.3" fill="#9fc0ff" opacity="0.4"/><circle cx="439" cy="1559" r="0.6" fill="#9fc0ff" opacity="0.6"/><circle cx="842" cy="943" r="0.6" fill="#9fc0ff" opacity="0.25"/><circle cx="506" cy="682" r="0.6" fill="#9fc0ff" opacity="0.4"/><circle cx="567" cy="308" r="1.3" fill="#9fc0ff" opacity="0.4"/><circle cx="1030" cy="973" r="1.3" fill="#9fc0ff" opacity="0.25"/><circle cx="454" cy="1504" r="1.3" fill="#9fc0ff" opacity="0.4"/><circle cx="811" cy="1245" r="0.6" fill="#9fc0ff" opacity="0.4"/><circle cx="901" cy="79" r="0.9" fill="#9fc0ff" opacity="0.6"/><circle cx="1162" cy="1381" r="1.3" fill="#9fc0ff" opacity="0.25"/><circle cx="818" cy="75" r="0.9" fill="#9fc0ff" opacity="0.25"/><circle cx="49" cy="823" r="0.9" fill="#9fc0ff" opacity="0.25"/><circle cx="912" cy="444" r="0.6" fill="#9fc0ff" opacity="0.4"/><circle cx="440" cy="790" r="0.9" fill="#9fc0ff" opacity="0.6"/><circle cx="327" cy="624" r="1.3" fill="#9fc0ff" opacity="0.4"/><circle cx="1127" cy="1044" r="0.9" fill="#9fc0ff" opacity="0.6"/><circle cx="65" cy="482" r="0.9" fill="#9fc0ff" opacity="0.25"/><circle cx="1020" cy="984" r="1.3" fill="#9fc0ff" opacity="0.6"/><circle cx="450" cy="52" r="0.6" fill="#9fc0ff" opacity="0.4"/><circle cx="738" cy="1022" r="1.3" fill="#9fc0ff" opacity="0.6"/><circle cx="38" cy="750" r="0.6" fill="#9fc0ff" opacity="0.25"/><circle cx="84" cy="1169" r="0.6" fill="#9fc0ff" opacity="0.25"/><circle cx="797" cy="63" r="0.6" fill="#9fc0ff" opacity="0.6"/><circle cx="654" cy="1646" r="0.6" fill="#9fc0ff" opacity="0.6"/><circle cx="453" cy="1124" r="0.6" fill="#9fc0ff" opacity="0.6"/><circle cx="490" cy="582" r="0.9" fill="#9fc0ff" opacity="0.6"/><circle cx="1140" cy="265" r="0.9" fill="#9fc0ff" opacity="0.25"/><circle cx="971" cy="274" r="0.6" fill="#9fc0ff" opacity="0.4"/><circle cx="890" cy="833" r="1.3" fill="#9fc0ff" opacity="0.4"/><circle cx="12" cy="766" r="1.3" fill="#9fc0ff" opacity="0.6"/><circle cx="615" cy="1485" r="0.9" fill="#9fc0ff" opacity="0.4"/><circle cx="276" cy="1484" r="0.9" fill="#9fc0ff" opacity="0.25"/><circle cx="33" cy="112" r="1.3" fill="#9fc0ff" opacity="0.25"/><circle cx="1009" cy="672" r="0.9" fill="#9fc0ff" opacity="0.6"/><circle cx="556" cy="392" r="1.3" fill="#9fc0ff" opacity="0.4"/><circle cx="21" cy="1448" r="1.3" fill="#9fc0ff" opacity="0.4"/><circle cx="306" cy="549" r="1.3" fill="#9fc0ff" opacity="0.4"/><circle cx="1067" cy="830" r="0.6" fill="#9fc0ff" opacity="0.25"/><circle cx="264" cy="1593" r="0.6" fill="#9fc0ff" opacity="0.6"/><circle cx="918" cy="214" r="1.3" fill="#9fc0ff" opacity="0.6"/><circle cx="813" cy="893" r="0.6" fill="#9fc0ff" opacity="0.6"/><circle cx="919" cy="1606" r="0.6" fill="#9fc0ff" opacity="0.4"/><circle cx="446" cy="420" r="0.6" fill="#9fc0ff" opacity="0.25"/>
<text x="70" y="56" fill="#b48bff" font-size="15" font-weight="700" letter-spacing="4">D1 · design.ui-mockup</text>
<text x="70" y="92" fill="#eef3ff" font-size="30" font-weight="700">UI/UX Design Generation</text>
<text x="70" y="118" fill="#9fb0d6" font-size="14" font-style="italic">“Design a [screen/flow] for [product]" / "Create mockups for [feature]”</text>
<text x="1110" y="56" text-anchor="end" fill="#37d0d6" font-size="13" font-weight="600" letter-spacing="1">30min-3hr | ~$1-10 | 20k-150k tokens</text>
<path d="M196.0,256 C196.0,287.0 196.0,287.0 196.0,318" fill="none" stroke="#37d0d6" stroke-width="11" opacity="0.14"/>
<path d="M196.0,256 C196.0,287.0 196.0,287.0 196.0,318" fill="none" stroke="url(#e_flow)" stroke-width="3.4" opacity="0.95"/>
<g transform="translate(196.0,318) rotate(90)"><path d="M-6,-9 L6,0 L-6,9 Z" fill="#37d0d6"/></g>
<path d="M196.0,424 C196.0,455.0 196.0,455.0 196.0,486" fill="none" stroke="#37d0d6" stroke-width="11" opacity="0.14"/>
<path d="M196.0,424 C196.0,455.0 196.0,455.0 196.0,486" fill="none" stroke="url(#e_flow)" stroke-width="3.4" opacity="0.95"/>
<g transform="translate(196.0,486) rotate(90)"><path d="M-6,-9 L6,0 L-6,9 Z" fill="#37d0d6"/></g>
<path d="M196.0,592 C196.0,623.0 196.0,623.0 196.0,654" fill="none" stroke="#37d0d6" stroke-width="11" opacity="0.14"/>
<path d="M196.0,592 C196.0,623.0 196.0,623.0 196.0,654" fill="none" stroke="url(#e_flow)" stroke-width="3.4" opacity="0.95"/>
<g transform="translate(196.0,654) rotate(90)"><path d="M-6,-9 L6,0 L-6,9 Z" fill="#37d0d6"/></g>
<path d="M196.0,760 C196.0,791.0 196.0,791.0 196.0,822" fill="none" stroke="#37d0d6" stroke-width="11" opacity="0.14"/>
<path d="M196.0,760 C196.0,791.0 196.0,791.0 196.0,822" fill="none" stroke="url(#e_flow)" stroke-width="3.4" opacity="0.95"/>
<g transform="translate(196.0,822) rotate(90)"><path d="M-6,-9 L6,0 L-6,9 Z" fill="#37d0d6"/></g>
<path d="M196.0,928 C196.0,959.0 196.0,959.0 196.0,990" fill="none" stroke="#37d0d6" stroke-width="11" opacity="0.14"/>
<path d="M196.0,928 C196.0,959.0 196.0,959.0 196.0,990" fill="none" stroke="url(#e_flow)" stroke-width="3.4" opacity="0.95"/>
<g transform="translate(196.0,990) rotate(90)"><path d="M-6,-9 L6,0 L-6,9 Z" fill="#37d0d6"/></g>
<path d="M196.0,1096 C196.0,1127.0 196.0,1127.0 196.0,1158" fill="none" stroke="#37d0d6" stroke-width="11" opacity="0.14"/>
<path d="M196.0,1096 C196.0,1127.0 196.0,1127.0 196.0,1158" fill="none" stroke="url(#e_flow)" stroke-width="3.4" opacity="0.95"/>
<g transform="translate(196.0,1158) rotate(90)"><path d="M-6,-9 L6,0 L-6,9 Z" fill="#37d0d6"/></g>
<path d="M196.0,1264 C196.0,1295.0 196.0,1295.0 196.0,1326" fill="none" stroke="#37d0d6" stroke-width="11" opacity="0.14"/>
<path d="M196.0,1264 C196.0,1295.0 196.0,1295.0 196.0,1326" fill="none" stroke="url(#e_flow)" stroke-width="3.4" opacity="0.95"/>
<g transform="translate(196.0,1326) rotate(90)"><path d="M-6,-9 L6,0 L-6,9 Z" fill="#37d0d6"/></g>
<path d="M196.0,1432 C196.0,1463.0 196.0,1463.0 196.0,1494" fill="none" stroke="#37d0d6" stroke-width="11" opacity="0.14"/>
<path d="M196.0,1432 C196.0,1463.0 196.0,1463.0 196.0,1494" fill="none" stroke="url(#e_flow)" stroke-width="3.4" opacity="0.95"/>
<g transform="translate(196.0,1494) rotate(90)"><path d="M-6,-9 L6,0 L-6,9 Z" fill="#37d0d6"/></g>
<rect x="54" y="134" width="284" height="138" rx="34" fill="#dfe8ff" opacity="0.1"/>
<rect x="61" y="141" width="270" height="124" rx="27" fill="#dfe8ff" opacity="0.16"/>
<path d="M322,164 L337,181 L337,273 L85,273 L322,256 Z" fill="#3e3059" opacity="0.9"/>
<rect x="70" y="150" width="252" height="106" rx="16" fill="#0b1122"/>
<rect x="70" y="150" width="252" height="106" rx="16" fill="none" stroke="#b48bff" stroke-width="2" opacity="0.85"/>
<rect x="70" y="150" width="8" height="106" rx="4" fill="#dfe8ff"/>
<circle cx="100" cy="176" r="7" fill="#dfe8ff"/>
<text x="116" y="181" fill="#dfe8ff" font-size="12.5" font-weight="600" letter-spacing="1">ENTRY</text>
<text x="90" y="212" fill="#eef3ff" font-size="20" font-weight="700">Prompt</text>
<text x="90" y="236" fill="#9fb0d6" font-size="13">Design a [screen/flow] for [produ…</text>
<rect x="54" y="302" width="284" height="138" rx="34" fill="#37d0d6" opacity="0.1"/>
<rect x="61" y="309" width="270" height="124" rx="27" fill="#37d0d6" opacity="0.16"/>
<path d="M322,332 L337,349 L337,441 L85,441 L322,424 Z" fill="#3e3059" opacity="0.9"/>
<rect x="70" y="318" width="252" height="106" rx="16" fill="#0b1122"/>
<rect x="70" y="318" width="252" height="106" rx="16" fill="none" stroke="#b48bff" stroke-width="2" opacity="0.85"/>
<rect x="70" y="318" width="8" height="106" rx="4" fill="#37d0d6"/>
<circle cx="100" cy="344" r="7" fill="#37d0d6"/>
<text x="116" y="349" fill="#37d0d6" font-size="12.5" font-weight="600" letter-spacing="1">RESEARCH</text>
<text x="90" y="380" fill="#eef3ff" font-size="20" font-weight="700">Requirements Analysis</text>
<text x="90" y="404" fill="#9fb0d6" font-size="13">creative.designer</text>
<rect x="54" y="470" width="284" height="138" rx="34" fill="#a78bfa" opacity="0.1"/>
<rect x="61" y="477" width="270" height="124" rx="27" fill="#a78bfa" opacity="0.16"/>
<path d="M322,500 L337,517 L337,609 L85,609 L322,592 Z" fill="#3e3059" opacity="0.9"/>
<rect x="70" y="486" width="252" height="106" rx="16" fill="#0b1122"/>
<rect x="70" y="486" width="252" height="106" rx="16" fill="none" stroke="#b48bff" stroke-width="2" opacity="0.85"/>
<rect x="70" y="486" width="8" height="106" rx="4" fill="#a78bfa"/>
<circle cx="100" cy="512" r="7" fill="#a78bfa"/>
<text x="116" y="517" fill="#a78bfa" font-size="12.5" font-weight="600" letter-spacing="1">AGENT</text>
<text x="90" y="548" fill="#eef3ff" font-size="20" font-weight="700">Ia &amp; Flow</text>
<text x="90" y="572" fill="#9fb0d6" font-size="13">creative.designer</text>
<rect x="54" y="638" width="284" height="138" rx="34" fill="#a78bfa" opacity="0.1"/>
<rect x="61" y="645" width="270" height="124" rx="27" fill="#a78bfa" opacity="0.16"/>
<path d="M322,668 L337,685 L337,777 L85,777 L322,760 Z" fill="#3e3059" opacity="0.9"/>
<rect x="70" y="654" width="252" height="106" rx="16" fill="#0b1122"/>
<rect x="70" y="654" width="252" height="106" rx="16" fill="none" stroke="#b48bff" stroke-width="2" opacity="0.85"/>
<rect x="70" y="654" width="8" height="106" rx="4" fill="#a78bfa"/>
<circle cx="100" cy="680" r="7" fill="#a78bfa"/>
<text x="116" y="685" fill="#a78bfa" font-size="12.5" font-weight="600" letter-spacing="1">AGENT · PARALLEL</text>
<text x="90" y="716" fill="#eef3ff" font-size="20" font-weight="700">Wireframing</text>
<text x="90" y="740" fill="#9fb0d6" font-size="13">creative.designer</text>
<rect x="54" y="806" width="284" height="138" rx="34" fill="#a78bfa" opacity="0.1"/>
<rect x="61" y="813" width="270" height="124" rx="27" fill="#a78bfa" opacity="0.16"/>
<path d="M322,836 L337,853 L337,945 L85,945 L322,928 Z" fill="#3e3059" opacity="0.9"/>
<rect x="70" y="822" width="252" height="106" rx="16" fill="#0b1122"/>
<rect x="70" y="822" width="252" height="106" rx="16" fill="none" stroke="#b48bff" stroke-width="2" opacity="0.85"/>
<rect x="70" y="822" width="8" height="106" rx="4" fill="#a78bfa"/>
<circle cx="100" cy="848" r="7" fill="#a78bfa"/>
<text x="116" y="853" fill="#a78bfa" font-size="12.5" font-weight="600" letter-spacing="1">AGENT · COND</text>
<text x="90" y="884" fill="#eef3ff" font-size="20" font-weight="700">Visual Design</text>
<text x="90" y="908" fill="#9fb0d6" font-size="13">creative.designer</text>
<rect x="54" y="974" width="284" height="138" rx="34" fill="#f59e0b" opacity="0.1"/>
<rect x="61" y="981" width="270" height="124" rx="27" fill="#f59e0b" opacity="0.16"/>
<path d="M322,1004 L337,1021 L337,1113 L85,1113 L322,1096 Z" fill="#3e3059" opacity="0.9"/>
<rect x="70" y="990" width="252" height="106" rx="16" fill="#0b1122"/>
<rect x="70" y="990" width="252" height="106" rx="16" fill="none" stroke="#b48bff" stroke-width="2" opacity="0.85"/>
<rect x="70" y="990" width="8" height="106" rx="4" fill="#f59e0b"/>
<circle cx="100" cy="1016" r="7" fill="#f59e0b"/>
<text x="116" y="1021" fill="#f59e0b" font-size="12.5" font-weight="600" letter-spacing="1">REVIEW</text>
<text x="90" y="1052" fill="#eef3ff" font-size="20" font-weight="700">Accessibility Audit</text>
<text x="90" y="1076" fill="#9fb0d6" font-size="13">creative.critic</text>
<rect x="54" y="1142" width="284" height="138" rx="34" fill="#a78bfa" opacity="0.1"/>
<rect x="61" y="1149" width="270" height="124" rx="27" fill="#a78bfa" opacity="0.16"/>
<path d="M322,1172 L337,1189 L337,1281 L85,1281 L322,1264 Z" fill="#3e3059" opacity="0.9"/>
<rect x="70" y="1158" width="252" height="106" rx="16" fill="#0b1122"/>
<rect x="70" y="1158" width="252" height="106" rx="16" fill="none" stroke="#b48bff" stroke-width="2" opacity="0.85"/>
<rect x="70" y="1158" width="8" height="106" rx="4" fill="#a78bfa"/>
<circle cx="100" cy="1184" r="7" fill="#a78bfa"/>
<text x="116" y="1189" fill="#a78bfa" font-size="12.5" font-weight="600" letter-spacing="1">AGENT · COND</text>
<text x="90" y="1220" fill="#eef3ff" font-size="20" font-weight="700">Prototype</text>
<text x="90" y="1244" fill="#9fb0d6" font-size="13">creative.designer</text>
<rect x="54" y="1310" width="284" height="138" rx="34" fill="#56d364" opacity="0.1"/>
<rect x="61" y="1317" width="270" height="124" rx="27" fill="#56d364" opacity="0.16"/>
<path d="M322,1340 L337,1357 L337,1449 L85,1449 L322,1432 Z" fill="#3e3059" opacity="0.9"/>
<rect x="70" y="1326" width="252" height="106" rx="16" fill="#0b1122"/>
<rect x="70" y="1326" width="252" height="106" rx="16" fill="none" stroke="#b48bff" stroke-width="2" opacity="0.85"/>
<rect x="70" y="1326" width="8" height="106" rx="4" fill="#56d364"/>
<circle cx="100" cy="1352" r="7" fill="#56d364"/>
<text x="116" y="1357" fill="#56d364" font-size="12.5" font-weight="600" letter-spacing="1">OUTPUT</text>
<text x="90" y="1388" fill="#eef3ff" font-size="20" font-weight="700">Handoff</text>
<text x="90" y="1412" fill="#9fb0d6" font-size="13">creative.formatter</text>
<rect x="54" y="1478" width="284" height="138" rx="34" fill="#56d364" opacity="0.1"/>
<rect x="61" y="1485" width="270" height="124" rx="27" fill="#56d364" opacity="0.16"/>
<path d="M322,1508 L337,1525 L337,1617 L85,1617 L322,1600 Z" fill="#3e3059" opacity="0.9"/>
<rect x="70" y="1494" width="252" height="106" rx="16" fill="#0b1122"/>
<rect x="70" y="1494" width="252" height="106" rx="16" fill="none" stroke="#b48bff" stroke-width="2" opacity="0.85"/>
<rect x="70" y="1494" width="8" height="106" rx="4" fill="#56d364"/>
<circle cx="100" cy="1520" r="7" fill="#56d364"/>
<text x="116" y="1525" fill="#56d364" font-size="12.5" font-weight="600" letter-spacing="1">DONE</text>
<text x="90" y="1556" fill="#eef3ff" font-size="20" font-weight="700">Delivery</text>
<text x="90" y="1580" fill="#9fb0d6" font-size="13">canvas · files · KG</text>
<text x="70" y="1688" fill="#9fb0d6" font-size="12" font-weight="600" letter-spacing="1">NODE</text>
<circle cx="122" cy="1684" r="6" fill="#dfe8ff"/><text x="134" y="1688" fill="#9fb0d6" font-size="12">entry</text>
<circle cx="191" cy="1684" r="6" fill="#a78bfa"/><text x="203" y="1688" fill="#9fb0d6" font-size="12">agent</text>
<circle cx="260" cy="1684" r="6" fill="#37d0d6"/><text x="272" y="1688" fill="#9fb0d6" font-size="12">research</text>
<circle cx="353" cy="1684" r="6" fill="#f59e0b"/><text x="365" y="1688" fill="#9fb0d6" font-size="12">review</text>
<circle cx="430" cy="1684" r="6" fill="#f4c95d"/><text x="442" y="1688" fill="#9fb0d6" font-size="12">gate</text>
<circle cx="490" cy="1684" r="6" fill="#56d364"/><text x="502" y="1688" fill="#9fb0d6" font-size="12">output</text>
<circle cx="567" cy="1684" r="6" fill="#56d364"/><text x="579" y="1688" fill="#9fb0d6" font-size="12">done</text>
<circle cx="627" cy="1684" r="6" fill="#ff6b6b"/><text x="639" y="1688" fill="#9fb0d6" font-size="12">fail</text>
<text x="70" y="1712" fill="#9fb0d6" font-size="12" font-weight="600" letter-spacing="1">EDGE</text>
<line x1="122" y1="1708" x2="144" y2="1708" stroke="#37d0d6" stroke-width="3"/><text x="150" y="1712" fill="#9fb0d6" font-size="12">flow</text>
<line x1="206" y1="1708" x2="228" y2="1708" stroke="#f4c95d" stroke-width="3"/><text x="234" y="1712" fill="#9fb0d6" font-size="12">branch</text>
<line x1="307" y1="1708" x2="329" y2="1708" stroke="#f59e0b" stroke-width="3"/><text x="335" y="1712" fill="#9fb0d6" font-size="12">loop</text>
<line x1="391" y1="1708" x2="413" y2="1708" stroke="#ff6b6b" stroke-width="3"/><text x="419" y="1712" fill="#9fb0d6" font-size="12">compensate</text>
</svg>